<svg xmlns="http://www.w3.org/2000/svg" height="48"  width="48" viewBox="0 96 960 960"><path class="SVGPath" d="M122.214 681q-12.114 0-19.164-8Q96 665 96 654t7.121-19q7.122-8 18.95-8 11.829 0 19.379 8 7.55 8 7.55 19t-7.336 19q-7.335 8-19.45 8Zm0-156q-12.114 0-19.164-8Q96 509 96 498t7.121-19q7.122-8 18.95-8 11.829 0 19.379 8 7.55 8 7.55 19t-7.336 19q-7.335 8-19.45 8Zm118.391 334q-19.005 0-30.805-11.888-11.8-11.887-11.8-31.7 0-19.812 11.832-31.612 11.832-11.8 31.063-11.8 18.505 0 30.805 11.888 12.3 11.887 12.3 31.7 0 19.812-12.195 31.612-12.194 11.8-31.2 11.8Zm0-162q-19.005 0-30.805-11.888-11.8-11.887-11.8-31.2 0-19.312 11.832-31.112 11.832-11.8 31.063-11.8 18.505 0 30.805 11.888 12.3 11.887 12.3 31.2 0 19.312-12.195 31.112-12.194 11.8-31.2 11.8Zm0-155q-19.005 0-30.805-12.581-11.8-12.58-11.8-31.7 0-19.119 11.832-30.919t31.063-11.8q18.505 0 30.805 11.888 12.3 11.887 12.3 31.007 0 19.119-12.195 31.612Q259.611 542 240.605 542Zm0-162q-19.005 0-30.805-11.888-11.8-11.887-11.8-31.7 0-19.812 11.832-31.612 11.832-11.8 31.063-11.8 18.505 0 30.805 11.888 12.3 11.887 12.3 31.7 0 19.812-12.195 31.612-12.194 11.8-31.2 11.8Zm162.013 333Q379 713 361.5 695.559q-17.5-17.441-17.5-41.5t17.321-41.559q17.321-17.5 41.208-17.5 22.971 0 40.721 17.441 17.75 17.441 17.75 41.5T443.409 695.5q-17.59 17.5-40.791 17.5Zm0-156Q379 557 361.5 539.662q-17.5-17.339-17.5-41.25 0-23.912 17.321-41.662T402.529 439q22.971 0 40.721 17.544Q461 474.088 461 498.294t-17.591 41.456Q425.819 557 402.618 557Zm-.013 302q-19.005 0-30.805-11.888-11.8-11.887-11.8-31.7 0-19.812 11.832-31.612 11.832-11.8 31.063-11.8 18.505 0 30.805 11.888 12.3 11.887 12.3 31.7 0 19.812-12.195 31.612-12.194 11.8-31.2 11.8Zm0-479q-19.005 0-30.805-11.888-11.8-11.887-11.8-31.7 0-19.812 11.832-31.612 11.832-11.8 31.063-11.8 18.505 0 30.805 11.888 12.3 11.887 12.3 31.7 0 19.812-12.195 31.612-12.194 11.8-31.2 11.8Zm-.391 581Q390 961 383 953.429q-7-7.572-7-19 0-11.429 7.143-18.929 7.143-7.5 19-7.5T422 915.55q8 7.55 8 18.95 0 11.4-7.786 18.95-7.785 7.55-20 7.55Zm.215-716Q390 245 383 237q-7-8-7-19t7.143-19q7.143-8 19-8T422 199q8 8 8 19t-7.571 19q-7.572 8-20 8Zm155.542 468q-23.471 0-40.721-17.441-17.25-17.441-17.25-41.5t17.132-41.559q17.133-17.5 40.75-17.5Q581 595 599 612.441q18 17.441 18 41.5T599.221 695.5q-17.78 17.5-41.25 17.5Zm0-156q-23.471 0-40.721-17.338Q500 522.323 500 498.412q0-23.912 17.132-41.662Q534.265 439 557.882 439 581 439 599 456.544q18 17.544 18 41.75t-17.779 41.456Q581.441 557 557.971 557Zm.134 302q-19.505 0-31.305-11.888-11.8-11.887-11.8-31.7 0-19.812 11.832-31.612 11.832-11.8 31.563-11.8 19.005 0 31.305 11.888 12.3 11.887 12.3 31.7 0 19.812-12.195 31.612-12.194 11.8-31.7 11.8Zm0-479q-19.505 0-31.305-11.888-11.8-11.887-11.8-31.7 0-19.812 11.832-31.612 11.832-11.8 31.563-11.8 19.005 0 31.305 11.888 12.3 11.887 12.3 31.7 0 19.812-12.195 31.612-12.194 11.8-31.7 11.8Zm.038-137Q546 243 539 235.429q-7-7.572-7-19 0-11.429 6.971-18.929 6.972-7.5 18.6-7.5 12.029 0 19.729 7.4 7.7 7.4 7.7 18.6 0 11.6-7.357 19.3-7.357 7.7-19.5 7.7Zm6.071 720q-12.114 0-19.164-8-7.05-8-7.05-19t7.121-19q7.122-8 18.95-8 11.829 0 19.379 8 7.55 8 7.55 19t-7.336 19q-7.335 8-19.45 8Zm155.391-104q-19.005 0-30.805-11.888-11.8-11.887-11.8-31.7 0-19.812 11.832-31.612 11.832-11.8 31.063-11.8 18.505 0 30.805 11.888 12.3 11.887 12.3 31.7 0 19.812-12.195 31.612-12.194 11.8-31.2 11.8Zm0-162q-19.005 0-30.805-11.888-11.8-11.887-11.8-31.2 0-19.312 11.832-31.112 11.832-11.8 31.063-11.8 18.505 0 30.805 11.888 12.3 11.887 12.3 31.2 0 19.312-12.195 31.112-12.194 11.8-31.2 11.8Zm0-155q-19.005 0-30.805-12.581-11.8-12.58-11.8-31.7 0-19.119 11.832-30.919t31.063-11.8q18.505 0 30.805 11.888 12.3 11.887 12.3 31.007 0 19.119-12.195 31.612Q738.611 542 719.605 542Zm0-162q-19.005 0-30.805-11.888-11.8-11.887-11.8-31.7 0-19.812 11.832-31.612 11.832-11.8 31.063-11.8 18.505 0 30.805 11.888 12.3 11.887 12.3 31.7 0 19.812-12.195 31.612-12.194 11.8-31.2 11.8Zm118.609 301q-12.114 0-19.164-8-7.05-8-7.05-19t7.121-19q7.122-8 18.95-8 11.829 0 19.379 8 7.55 8 7.55 19t-7.336 19q-7.335 8-19.45 8Zm0-156q-12.114 0-19.164-8-7.05-8-7.05-19t7.121-19q7.122-8 18.95-8 11.829 0 19.379 8 7.55 8 7.55 19t-7.336 19q-7.335 8-19.45 8Z"/></svg>