<?xml version="1.0" encoding="UTF-8" standalone="no"?> <svg width="62.797913" height="62.797882" viewBox="0 0 62.797913 62.797882"><g transform="translate(-183.46973,-502.15231)"><g transform="translate(59.571764,3.5441284)"><circle style="stroke-width:1.33774" class="SVGBackground" cx="155.29692" cy="530.00714" r="31.398954"/><g transform="translate(101.47089,336.73462)"><path class="SVGPath" d="m 35.536918,182.44063 -6.897238,-3.98212 6.897238,-3.98212 z" transform="matrix(1.3672336,-0.36634914,0.36634914,1.3672336,-45.915197,-47.702818)"/><path class="SVGPath" style="stroke-width:1.21214" d="m 54.208984,175.95508 a 17.513969,17.321758 0 0 0 -11.044922,3.57422 17.513969,17.321758 0 0 0 -5.210937,21.0625 17.513969,17.321758 0 0 0 19.664063,9.59179 17.513969,17.321758 0 0 0 13.722656,-16.91211 h -6.041016 a 11.47187,11.47187 0 0 0 0,0.002 11.47187,11.47187 0 0 0 0,0.002 11.47187,11.47187 0 0 0 0,0.002 11.47187,11.47187 0 0 0 0,0.002 11.47187,11.47187 0 0 0 0,0.002 11.47187,11.47187 0 0 0 0,0.002 11.47187,11.47187 0 0 0 0,0.002 11.47187,11.47187 0 0 0 0,0.002 11.47187,11.47187 0 0 0 0,0.002 11.47187,11.47187 0 0 0 0,0.002 11.47187,11.47187 0 0 0 0,0.002 11.47187,11.47187 0 0 0 0,0.002 11.47187,11.47187 0 0 0 0,0.002 11.47187,11.47187 0 0 0 0,0.002 11.47187,11.47187 0 0 0 0,0.002 11.47187,11.47187 0 0 0 0,0.002 11.47187,11.47187 0 0 0 0,0.002 11.47187,11.47187 0 0 0 0,0.002 11.47187,11.47187 0 0 0 0,0.002 11.47187,11.47187 0 0 0 0,0.002 11.47187,11.47187 0 0 0 0,0.002 11.47187,11.47187 0 0 0 0,0.002 11.47187,11.47187 0 0 0 0,0.002 11.47187,11.47187 0 0 0 0,0.002 11.47187,11.47187 0 0 0 0,0.002 11.47187,11.47187 0 0 0 0,0.002 11.47187,11.47187 0 0 0 0,0.002 11.47187,11.47187 0 0 0 0,0.002 11.47187,11.47187 0 0 0 0,0.002 11.47187,11.47187 0 0 0 0,0.002 11.47187,11.47187 0 0 0 0,0.002 11.47187,11.47187 0 0 0 0,0.002 11.47187,11.47187 0 0 0 0,0.002 11.47187,11.47187 0 0 0 0,0.002 11.47187,11.47187 0 0 0 0,0.002 11.47187,11.47187 0 0 0 0,0.002 11.47187,11.47187 0 0 0 0,0.002 11.47187,11.47187 0 0 0 0,0.002 11.47187,11.47187 0 0 0 0,0.002 11.47187,11.47187 0 0 0 0,0.002 11.47187,11.47187 0 0 0 0,0.002 11.47187,11.47187 0 0 0 0,0.002 11.47187,11.47187 0 0 0 0,0.002 11.47187,11.47187 0 0 0 0,0.002 11.47187,11.47187 0 0 0 0,0.002 11.47187,11.47187 0 0 0 0,0.002 11.47187,11.47187 0 0 0 0,0.002 11.47187,11.47187 0 0 0 0,0.002 11.47187,11.47187 0 0 0 0,0.002 11.47187,11.47187 0 0 0 0,0.002 11.47187,11.47187 0 0 0 0,0.002 11.47187,11.47187 0 0 0 0,0.002 11.47187,11.47187 0 0 0 0,0.002 11.47187,11.47187 0 0 0 0,0.002 11.47187,11.47187 0 0 0 0,0.002 11.47187,11.47187 0 0 0 0,0.002 11.47187,11.47187 0 0 0 0,0.002 11.47187,11.47187 0 0 0 0,0.002 11.47187,11.47187 0 0 0 0,0.002 11.47187,11.47187 0 0 0 0,0.002 11.47187,11.47187 0 0 0 0,0.002 11.47187,11.47187 0 0 0 0,0.002 11.47187,11.47187 0 0 0 0,0.002 11.47187,11.47187 0 0 0 0,0.002 11.47187,11.47187 0 0 0 0,0.002 11.47187,11.47187 0 0 0 0,0.002 11.47187,11.47187 0 0 0 0,0.002 11.47187,11.47187 0 0 0 0,0.002 11.47187,11.47187 0 0 0 0,0.002 11.47187,11.47187 0 0 0 0,0.002 11.47187,11.47187 0 0 0 0,0.002 11.47187,11.47187 0 0 0 0,0.002 11.47187,11.47187 0 0 0 0,0.002 11.47187,11.47187 0 0 0 0,0.002 11.47187,11.47187 0 0 0 0,0.002 11.47187,11.47187 0 0 0 0,0.002 11.47187,11.47187 0 0 0 0,0.002 11.47187,11.47187 0 0 0 0,0.002 11.47187,11.47187 0 0 0 0,0.002 11.47187,11.47187 0 0 0 0,0.002 11.47187,11.47187 0 0 0 0,0.002 11.47187,11.47187 0 0 0 0,0.002 11.47187,11.47187 0 0 0 0,0.002 11.47187,11.47187 0 0 0 0,0.002 11.47187,11.47187 0 0 0 0,0.002 11.47187,11.47187 0 0 0 0,0.002 11.47187,11.47187 0 0 0 0,0.002 11.47187,11.47187 0 0 0 0,0.002 11.47187,11.47187 0 0 0 0,0.002 11.47187,11.47187 0 0 0 0,0.002 11.47187,11.47187 0 0 0 0,0.002 11.47187,11.47187 0 0 0 0,0.002 11.47187,11.47187 0 0 0 0,0.002 11.47187,11.47187 0 0 0 0,0.002 11.47187,11.47187 0 0 0 0,0.002 11.47187,11.47187 0 0 0 0,0.002 11.47187,11.47187 0 0 0 0,0.002 11.47187,11.47187 0 0 1 -0.002,0.0625 11.47187,11.47187 0 0 1 -0.002,0.0625 11.47187,11.47187 0 0 1 -0.002,0.0625 11.47187,11.47187 0 0 1 -0.002,0.0625 11.47187,11.47187 0 0 1 -0.002,0.0625 11.47187,11.47187 0 0 1 -0.0039,0.0625 11.47187,11.47187 0 0 1 -0.002,0.0625 11.47187,11.47187 0 0 1 -0.0039,0.0625 11.47187,11.47187 0 0 1 -0.0039,0.0625 11.47187,11.47187 0 0 1 -0.0039,0.0625 11.47187,11.47187 0 0 1 -0.0059,0.0625 11.47187,11.47187 0 0 1 -0.0039,0.0605 11.47187,11.47187 0 0 1 -0.0059,0.0625 11.47187,11.47187 0 0 1 -0.0078,0.0625 11.47187,11.47187 0 0 1 -0.0059,0.0625 11.47187,11.47187 0 0 1 -0.0059,0.0625 11.47187,11.47187 0 0 1 -0.0059,0.0625 11.47187,11.47187 0 0 1 -0.0078,0.0625 11.47187,11.47187 0 0 1 -0.0078,0.0625 11.47187,11.47187 0 0 1 -0.0078,0.0606 11.47187,11.47187 0 0 1 -0.0078,0.0625 11.47187,11.47187 0 0 1 -0.0078,0.0625 11.47187,11.47187 0 0 1 -0.0078,0.0625 11.47187,11.47187 0 0 1 -0.0098,0.0606 11.47187,11.47187 0 0 1 -0.0098,0.0625 11.47187,11.47187 0 0 1 -0.0098,0.0625 11.47187,11.47187 0 0 1 -0.0098,0.0605 11.47187,11.47187 0 0 1 -0.0098,0.0625 11.47187,11.47187 0 0 1 -0.01172,0.0605 11.47187,11.47187 0 0 1 -0.216797,0.97656 11.47187,11.47187 0 0 1 -0.300781,0.95508 11.47187,11.47187 0 0 1 -0.382813,0.92383 11.47187,11.47187 0 0 1 -0.46289,0.88867 11.47187,11.47187 0 0 1 -0.53711,0.84375 11.47187,11.47187 0 0 1 -0.609375,0.79492 11.47187,11.47187 0 0 1 -0.675781,0.73829 11.47187,11.47187 0 0 1 -0.738281,0.67578 11.47187,11.47187 0 0 1 -0.792969,0.60937 11.47187,11.47187 0 0 1 -0.845703,0.53711 11.47187,11.47187 0 0 1 -0.886719,0.46289 11.47187,11.47187 0 0 1 -0.925781,0.38281 11.47187,11.47187 0 0 1 -0.953125,0.30079 11.47187,11.47187 0 0 1 -0.978516,0.21679 11.47187,11.47187 0 0 1 -0.992187,0.13086 11.47187,11.47187 0 0 1 -1,0.043 11.47187,11.47187 0 0 1 -1,-0.043 11.47187,11.47187 0 0 1 -0.992188,-0.13086 11.47187,11.47187 0 0 1 -0.976562,-0.21679 11.47187,11.47187 0 0 1 -0.955078,-0.30079 11.47187,11.47187 0 0 1 -0.923829,-0.38281 11.47187,11.47187 0 0 1 -0.888671,-0.46289 11.47187,11.47187 0 0 1 -0.841797,-0.53711 11.47187,11.47187 0 0 1 -0.794922,-0.60937 11.47187,11.47187 0 0 1 -0.736328,-0.67578 11.47187,11.47187 0 0 1 -0.677735,-0.73829 11.47187,11.47187 0 0 1 -0.607421,-0.79492 11.47187,11.47187 0 0 1 -0.539063,-0.84375 11.47187,11.47187 0 0 1 -0.460937,-0.88867 11.47187,11.47187 0 0 1 -0.384766,-0.92383 11.47187,11.47187 0 0 1 -0.300781,-0.95508 11.47187,11.47187 0 0 1 -0.216797,-0.97656 11.47187,11.47187 0 0 1 -0.128906,-0.99219 11.47187,11.47187 0 0 1 -0.04492,-1 11.47187,11.47187 0 0 1 0.04492,-1 11.47187,11.47187 0 0 1 0.128906,-0.99218 11.47187,11.47187 0 0 1 0.216797,-0.97852 11.47187,11.47187 0 0 1 0.300781,-0.95312 11.47187,11.47187 0 0 1 0.384766,-0.92383 11.47187,11.47187 0 0 1 0.460937,-0.88672 11.47187,11.47187 0 0 1 0.539063,-0.8457 11.47187,11.47187 0 0 1 0.607421,-0.79297 11.47187,11.47187 0 0 1 0.677735,-0.73828 11.47187,11.47187 0 0 1 0.736328,-0.67578 11.47187,11.47187 0 0 1 0.794922,-0.60938 11.47187,11.47187 0 0 1 0.841797,-0.53711 11.47187,11.47187 0 0 1 0.888671,-0.46289 11.47187,11.47187 0 0 1 0.923829,-0.38281 11.47187,11.47187 0 0 1 0.955078,-0.30078 11.47187,11.47187 0 0 1 0.976562,-0.2168 11.47187,11.47187 0 0 1 0.992188,-0.13086 11.47187,11.47187 0 0 1 1,-0.043 h 0.002 a 11.47187,11.47187 0 0 1 0.693359,0.0195 11.47187,11.47187 0 0 1 0.689453,0.0645 11.47187,11.47187 0 0 1 0.685547,0.10351 11.47187,11.47187 0 0 1 0.677735,0.14453 11.47187,11.47187 0 0 1 0.667968,0.1875 11.47187,11.47187 0 0 1 0.654297,0.22461 11.47187,11.47187 0 0 1 0.640625,0.26563 11.47187,11.47187 0 0 1 0.623047,0.30468 11.47187,11.47187 0 0 1 0.603516,0.33985 11.47187,11.47187 0 0 1 0.582031,0.375 11.47187,11.47187 0 0 1 0.558594,0.41211 11.47187,11.47187 0 0 1 0.341797,0.28515 l 3.839843,-4.52539 a 17.513969,17.321758 0 0 0 -10.875,-4.04687 z"/></g></g></g></svg>