<?xml version="1.0" encoding="UTF-8" standalone="no"?> <svg width="62.797905" height="62.797882" viewBox="0 0 62.797905 62.797882"><g transform="translate(-102.34162,-502.15231)"><g transform="translate(20.689048,70.922821)"><circle class="SVGBackground" style="stroke-width:1.33774" cx="113.05153" cy="462.62845" r="31.398954"/><g transform="translate(-169.40275,232.14986)"><path class="SVGPath" d="m 273.04608,215.89701 a 17.248199,17.248199 0 0 0 -7.83985,14.43946 17.248199,17.248199 0 0 0 17.24805,17.24804 17.248199,17.248199 0 0 0 17.24805,-17.24804 17.248199,17.248199 0 0 0 -7.83985,-14.43946 l -2.88672,5 a 11.47187,11.47187 0 0 1 0.55469,0.41016 11.47187,11.47187 0 0 1 0.53125,0.44336 11.47187,11.47187 0 0 1 0.50391,0.47461 11.47187,11.47187 0 0 1 0.47656,0.50391 11.47187,11.47187 0 0 1 0.44336,0.5332 11.47187,11.47187 0 0 1 0.41016,0.55859 11.47187,11.47187 0 0 1 0.37695,0.58203 11.47187,11.47187 0 0 1 0.33984,0.60352 11.47187,11.47187 0 0 1 0.30274,0.62305 11.47187,11.47187 0 0 1 0.26562,0.64062 11.47187,11.47187 0 0 1 0.22656,0.6543 11.47187,11.47187 0 0 1 0.18555,0.66797 11.47187,11.47187 0 0 1 0.14649,0.67773 11.47187,11.47187 0 0 1 0.10351,0.6836 11.47187,11.47187 0 0 1 0.0625,0.6914 11.47187,11.47187 0 0 1 0.0215,0.69141 11.47187,11.47187 0 0 1 -0.17383,1.99219 11.47187,11.47187 0 0 1 -0.51758,1.93164 11.47187,11.47187 0 0 1 -0.8457,1.8125 11.47187,11.47187 0 0 1 -1.14649,1.63867 11.47187,11.47187 0 0 1 -1.41406,1.41406 11.47187,11.47187 0 0 1 -1.63867,1.14648 11.47187,11.47187 0 0 1 -1.8125,0.84571 11.47187,11.47187 0 0 1 -1.93164,0.51758 11.47187,11.47187 0 0 1 -1.99219,0.17382 11.47187,11.47187 0 0 1 -1.99219,-0.17382 11.47187,11.47187 0 0 1 -1.93164,-0.51758 11.47187,11.47187 0 0 1 -1.8125,-0.84571 11.47187,11.47187 0 0 1 -1.63672,-1.14648 11.47187,11.47187 0 0 1 -1.41406,-1.41406 11.47187,11.47187 0 0 1 -1.14648,-1.63867 11.47187,11.47187 0 0 1 -0.84571,-1.8125 11.47187,11.47187 0 0 1 -0.51757,-1.93164 11.47187,11.47187 0 0 1 -0.17383,-1.99219 11.47187,11.47187 0 0 1 0.17383,-1.99219 11.47187,11.47187 0 0 1 0.51757,-1.93164 11.47187,11.47187 0 0 1 0.84571,-1.81055 11.47187,11.47187 0 0 1 1.14648,-1.63867 11.47187,11.47187 0 0 1 1.41406,-1.41406 11.47187,11.47187 0 0 1 0.85352,-0.64844 z"/><rect style="stroke-width:.918263" class="SVGPath" width="5.8185129" height="16.168404" x="279.54501" y="208.60057" rx="1" ry="0.84321326"/></g></g></g></svg>